<svg height="750" width="720" xmlns="http://www.w3.org/2000/svg">
<rect height="750" fill="#555" width="720"></rect>
<text fill="#7f7" font-family="Courier New" font-size="12" xml:space="preserve">
<tspan x="10" y="26"></tspan>

<tspan x="10" y="42">\x1b[35m[MODE_BUILD=buildApp]\x1b[0m - 2019-08-31T17:39:26.048Z - npm-testing /home/travis/build\</tspan>
<tspan x="10" y="58">/kaizhu256/node-puppeteer-lite</tspan>

<tspan x="10" y="74"></tspan>

<tspan x="10" y="90"></tspan>

<tspan x="10" y="106">buildApp - merged test-report from file /home/travis/build/kaizhu256/node-puppeteer-lite/tmp/bui\</tspan>
<tspan x="10" y="122">ld/test-report.json</tspan>

<tspan x="10" y="138">&gt; http-server listening on port 54342</tspan>

<tspan x="10" y="154">db - dropping database ...</tspan>

<tspan x="10" y="170"></tspan>

<tspan x="10" y="186">buildApp - merged test-report from file /home/travis/build/kaizhu256/node-puppeteer-lite/tmp/bui\</tspan>
<tspan x="10" y="202">ld/test-report.json</tspan>

<tspan x="10" y="218">jslint - 319ms /home/travis/build/kaizhu256/node-puppeteer-lite/README.md</tspan>

<tspan x="10" y="234">jslint - 130ms /home/travis/build/kaizhu256/node-puppeteer-lite/lib.puppeteer.js</tspan>

<tspan x="10" y="250">jslint - 1ms /home/travis/build/kaizhu256/node-puppeteer-lite/npm_scripts.sh</tspan>

<tspan x="10" y="266">jslint - 0ms /home/travis/build/kaizhu256/node-puppeteer-lite/package.json</tspan>

<tspan x="10" y="282">jslint - 21ms /home/travis/build/kaizhu256/node-puppeteer-lite/test.js</tspan>

<tspan x="10" y="298">testRunDefault - 5906 ms - testCase pending - testCase_buildApp_default ...</tspan>

<tspan x="10" y="314">http-server listening on port 49423</tspan>

<tspan x="10" y="330">testRunDefault - 10915 ms - testCase pending - testCase_buildApp_default ...</tspan>

<tspan x="10" y="346">testRunDefault - 11868 ms - [node test-case 1 of 1 passed] - testCase_buildApp_default</tspan>

<tspan x="10" y="362"></tspan>

<tspan x="10" y="378">buildApp - merged test-report from file /home/travis/build/kaizhu256/node-puppeteer-lite/tmp/bui\</tspan>
<tspan x="10" y="394">ld/test-report.json</tspan>

<tspan x="10" y="410"></tspan>

<tspan x="10" y="426">-------------------------------------------------------</tspan>

<tspan x="10" y="442">| test-report - buildApidoc - node - linux v12.9.1 - 2019-08-31T17:39:21.593Z</tspan>

<tspan x="10" y="458">|   11869 ms            0 failed        1 passed      |</tspan>

<tspan x="10" y="474">-------------------------------------------------------</tspan>

<tspan x="10" y="490">| test-report - npmTest - browser - / - Mozilla/5.0 (X11; Linux x86_64) AppleWebKit/537.36 (KHTM\</tspan>
<tspan x="10" y="506">L, like Gecko) Chrome/61.0.3163.100 Electron/2.0.18 Safari/537.36 - 2019-08-31T17:39:13.275Z</tspan>

<tspan x="10" y="522">|    1005 ms            0 failed        1 passed      |</tspan>

<tspan x="10" y="538">-------------------------------------------------------</tspan>

<tspan x="10" y="554">| test-report - npmTest - node - linux v12.9.1 - 2019-08-31T17:39:09.695Z</tspan>

<tspan x="10" y="570">|    8010 ms            0 failed        7 passed      |</tspan>

<tspan x="10" y="586">-------------------------------------------------------</tspan>

<tspan x="10" y="602"></tspan>

<tspan x="10" y="618">created test-report file /home/travis/build/kaizhu256/node-puppeteer-lite/tmp/build/test-report.\</tspan>
<tspan x="10" y="634">html</tspan>

<tspan x="10" y="650"></tspan>

<tspan x="10" y="666"></tspan>

<tspan x="10" y="682">buildApp - 0 failed tests</tspan>

<tspan x="10" y="698"></tspan>

<tspan x="10" y="714"></tspan>

<tspan x="10" y="730">\x1b[35m[MODE_BUILD=buildApp]\x1b[0m - 2019-08-31T17:39:34.813Z - EXIT_CODE - 0</tspan>

</text>
</svg>
